<?xml version="1.0" encoding="UTF-8"?>
<svg xmlns="http://www.w3.org/2000/svg" xmlns:xlink="http://www.w3.org/1999/xlink" viewBox="0 0 30 30" width="30px" height="30px">
<g id="surface98060634">
<path style=" stroke:none;fill-rule:nonzero;fill:#333333;fill-opacity:1;" d="M 22.828125 3 C 22.316406 3 21.804688 3.195312 21.414062 3.585938 L 19 6 L 24 11 L 26.414062 8.585938 C 27.195312 7.804688 27.195312 6.539062 26.414062 5.757812 L 24.242188 3.585938 C 23.851562 3.195312 23.339844 3 22.828125 3 Z M 17 8 L 5.261719 19.738281 C 5.261719 19.738281 6.175781 19.65625 6.519531 20 C 6.863281 20.34375 6.578125 22.578125 7 23 C 7.421875 23.421875 9.644531 23.125 9.964844 23.441406 C 10.28125 23.761719 10.261719 24.738281 10.261719 24.738281 L 22 13 Z M 4 23 L 3.058594 25.671875 C 3.019531 25.777344 3 25.886719 3 26 C 3 26.550781 3.449219 27 4 27 C 4.113281 27 4.222656 26.980469 4.328125 26.941406 C 4.332031 26.941406 4.335938 26.941406 4.335938 26.941406 L 4.363281 26.933594 C 4.367188 26.929688 4.367188 26.929688 4.367188 26.929688 L 7 26 Z M 4 23 "/>
</g>
</svg>
